<?xml version="1.0" encoding="utf-8"?>
<!-- Icono custom -->
<svg version="1.1" id="Layer_1" xmlns="http://www.w3.org/2000/svg" xmlns:xlink="http://www.w3.org/1999/xlink" x="0px" y="0px"
	 viewBox="0 0 24 24" style="enable-background:new 0 0 24 24;" xml:space="preserve">
<title>filter-1</title>
<path d="M10.4959 24.504C9.66725 24.504 8.9919 23.8061 8.9919 22.9486V13.3268C4.04906 12.0006 0.370738 7.45565 0.00400798 2.16725C0.00200399 2.12888 0 2.09467 0 2.06045C0 1.64567 0.156311 1.25474 0.439876 0.960252C0.72344 0.666798 1.10119 0.503998 1.50299 0.503998H22.4968C22.5299 0.503998 22.5639 0.505035 22.597 0.507109C22.9958 0.534069 23.3615 0.721755 23.626 1.03387C23.8906 1.34599 24.0228 1.74625 23.9968 2.16207C23.9968 2.16518 23.9968 2.16933 23.9958 2.17244C23.626 7.4598 19.9467 12.0037 15.0039 13.3268V20.3562C15.0049 20.8197 14.8065 21.2553 14.4618 21.5518L11.4568 24.1431C11.1873 24.3754 10.8466 24.504 10.4959 24.504Z"/>
</svg>
